<svg width="60" height="100" viewBox="0 0 60 100" fill="none" xmlns="http://www.w3.org/2000/svg">
<rect width="60" height="100" fill="#1E1E1E"/>
<g clip-path="url(#clip0_0_1)">
<circle cx="4" cy="4" r="4" fill="white"/>
<circle cx="22" cy="4" r="4" fill="white"/>
<circle cx="40" cy="4" r="4" fill="white"/>
<circle cx="4" cy="22" r="4" fill="white"/>
<circle cx="22" cy="22" r="4" fill="white"/>
<circle cx="40" cy="22" r="4" fill="white"/>
<circle cx="4" cy="40" r="4" fill="white"/>
<circle cx="22" cy="40" r="4" fill="white"/>
<circle cx="40" cy="40" r="4" fill="white"/>
<circle cx="4" cy="58" r="4" fill="white"/>
<circle cx="22" cy="58" r="4" fill="white"/>
<circle cx="40" cy="58" r="4" fill="white"/>
<circle cx="4" cy="76" r="4" fill="white"/>
<circle cx="22" cy="76" r="4" fill="white"/>
<circle cx="40" cy="76" r="4" fill="white"/>
<circle cx="4" cy="94" r="4" fill="white"/>
<circle cx="22" cy="94" r="4" fill="white"/>
<circle cx="40" cy="94" r="4" fill="white"/>
</g>
<defs>
<clipPath id="clip0_0_1">
<rect width="60" height="100" fill="white"/>
</clipPath>
</defs>
</svg>
